<?xml version="1.0" encoding="utf-8"?>
<!-- Generator: Adobe Illustrator 22.0.0, SVG Export Plug-In . SVG Version: 6.00 Build 0)  -->
<svg version="1.1" id="Layer_1" xmlns="http://www.w3.org/2000/svg" xmlns:xlink="http://www.w3.org/1999/xlink" x="0px" y="0px"
	 viewBox="0 0 1166 1177.3" style="enable-background:new 0 0 1166 1177.3;" xml:space="preserve">
<style type="text/css">
	.st0{fill:url(#SVGID_1_);}
	.st1{fill:url(#SVGID_2_);}
	.st2{fill:url(#SVGID_3_);}
	.st3{fill:url(#SVGID_4_);}
</style>
<g>
	
		<linearGradient id="SVGID_1_" gradientUnits="userSpaceOnUse" x1="723.0674" y1="457.6847" x2="55.508" y2="-458.7956" gradientTransform="matrix(1 0 0 -1 0 402)">
		<stop  offset="0" style="stop-color:#FEEEAB"/>
		<stop  offset="0.2897" style="stop-color:#EE8864"/>
		<stop  offset="0.7821" style="stop-color:#9974EA"/>
		<stop  offset="1" style="stop-color:#8537CD"/>
	</linearGradient>
	<path class="st0" d="M375.5,597.2c0,57.9,24.3,110.3,63.1,147.2L169.6,899.7C106.9,815.2,70,710.5,70,597.2s36.9-218,99.6-302.5
		L438.6,450C399.4,486.9,375.5,539.3,375.5,597.2z"/>
	
		<linearGradient id="SVGID_2_" gradientUnits="userSpaceOnUse" x1="841.5231" y1="371.4022" x2="173.9635" y2="-545.0778" gradientTransform="matrix(1 0 0 -1 0 402)">
		<stop  offset="0" style="stop-color:#FEEEAB"/>
		<stop  offset="0.2897" style="stop-color:#EE8864"/>
		<stop  offset="0.7821" style="stop-color:#9974EA"/>
		<stop  offset="1" style="stop-color:#8537CD"/>
	</linearGradient>
	<path class="st1" d="M1045.4,393.9L783.5,545.2l-9.6-5.5C749.2,455.2,671,393.6,578.7,393.6c-16.6,0-32.5,1.8-47.6,5.5L230.8,225.7
		C322,140.5,444.1,88.1,578.7,88.1C787.6,88.1,967.2,213.9,1045.4,393.9z"/>
	
		<linearGradient id="SVGID_3_" gradientUnits="userSpaceOnUse" x1="1119.8329" y1="168.6826" x2="452.2734" y2="-747.7974" gradientTransform="matrix(1 0 0 -1 0 402)">
		<stop  offset="0" style="stop-color:#FEEEAB"/>
		<stop  offset="0.2897" style="stop-color:#EE8864"/>
		<stop  offset="0.7821" style="stop-color:#9974EA"/>
		<stop  offset="1" style="stop-color:#8537CD"/>
	</linearGradient>
	<path class="st2" d="M1045.4,800.5c-78.6,180-257.9,305.5-466.7,305.5c-134.7,0-257.1-52.4-347.9-137.6L531.2,795
		c15.1,3.7,31.4,5.5,47.6,5.5c92.2,0,170.4-61.6,195.2-145.7l9.6-5.5L1045.4,800.5z"/>
	
		<linearGradient id="SVGID_4_" gradientUnits="userSpaceOnUse" x1="1225.4407" y1="91.7584" x2="557.8812" y2="-824.7216" gradientTransform="matrix(1 0 0 -1 0 402)">
		<stop  offset="0" style="stop-color:#FEEEAB"/>
		<stop  offset="0.2897" style="stop-color:#EE8864"/>
		<stop  offset="0.7821" style="stop-color:#9974EA"/>
		<stop  offset="1" style="stop-color:#8537CD"/>
	</linearGradient>
	<path class="st3" d="M1087.9,597.2c0,39.8-4.4,78.6-13.3,115.8L873.9,597.2l200.7-115.8C1083.1,518.6,1087.9,557.4,1087.9,597.2z"
		/>
</g>
</svg>
